<?xml version="1.0" standalone="yes"?><svg xmlns="http://www.w3.org/2000/svg" version="1.1" width="296" height="296" viewBox="0 0 296 296" shape-rendering="crispEdges"><rect x="0" y="0" width="296" height="296" fill="#ffffff"/><path fill="#000000" d="M32 32h8v8H32V32M40 32h8v8H40V32M48 32h8v8H48V32M56 32h8v8H56V32M64 32h8v8H64V32M72 32h8v8H72V32M80 32h8v8H80V32M96 32h8v8H96V32M152 32h8v8H152V32M192 32h8v8H192V32M208 32h8v8H208V32M216 32h8v8H216V32M224 32h8v8H224V32M232 32h8v8H232V32M240 32h8v8H240V32M248 32h8v8H248V32M256 32h8v8H256V32M32 40h8v8H32V40M80 40h8v8H80V40M96 40h8v8H96V40M144 40h8v8H144V40M168 40h8v8H168V40M192 40h8v8H192V40M208 40h8v8H208V40M256 40h8v8H256V40M32 48h8v8H32V48M48 48h8v8H48V48M56 48h8v8H56V48M64 48h8v8H64V48M80 48h8v8H80V48M104 48h8v8H104V48M128 48h8v8H128V48M152 48h8v8H152V48M160 48h8v8H160V48M168 48h8v8H168V48M208 48h8v8H208V48M224 48h8v8H224V48M232 48h8v8H232V48M240 48h8v8H240V48M256 48h8v8H256V48M32 56h8v8H32V56M48 56h8v8H48V56M56 56h8v8H56V56M64 56h8v8H64V56M80 56h8v8H80V56M96 56h8v8H96V56M104 56h8v8H104V56M112 56h8v8H112V56M128 56h8v8H128V56M152 56h8v8H152V56M160 56h8v8H160V56M168 56h8v8H168V56M176 56h8v8H176V56M208 56h8v8H208V56M224 56h8v8H224V56M232 56h8v8H232V56M240 56h8v8H240V56M256 56h8v8H256V56M32 64h8v8H32V64M48 64h8v8H48V64M56 64h8v8H56V64M64 64h8v8H64V64M80 64h8v8H80V64M112 64h8v8H112V64M128 64h8v8H128V64M144 64h8v8H144V64M160 64h8v8H160V64M168 64h8v8H168V64M208 64h8v8H208V64M224 64h8v8H224V64M232 64h8v8H232V64M240 64h8v8H240V64M256 64h8v8H256V64M32 72h8v8H32V72M80 72h8v8H80V72M104 72h8v8H104V72M112 72h8v8H112V72M136 72h8v8H136V72M160 72h8v8H160V72M168 72h8v8H168V72M176 72h8v8H176V72M184 72h8v8H184V72M208 72h8v8H208V72M256 72h8v8H256V72M32 80h8v8H32V80M40 80h8v8H40V80M48 80h8v8H48V80M56 80h8v8H56V80M64 80h8v8H64V80M72 80h8v8H72V80M80 80h8v8H80V80M96 80h8v8H96V80M112 80h8v8H112V80M128 80h8v8H128V80M144 80h8v8H144V80M160 80h8v8H160V80M176 80h8v8H176V80M192 80h8v8H192V80M208 80h8v8H208V80M216 80h8v8H216V80M224 80h8v8H224V80M232 80h8v8H232V80M240 80h8v8H240V80M248 80h8v8H248V80M256 80h8v8H256V80M96 88h8v8H96V88M144 88h8v8H144V88M152 88h8v8H152V88M184 88h8v8H184V88M192 88h8v8H192V88M32 96h8v8H32V96M48 96h8v8H48V96M56 96h8v8H56V96M72 96h8v8H72V96M80 96h8v8H80V96M88 96h8v8H88V96M112 96h8v8H112V96M120 96h8v8H120V96M128 96h8v8H128V96M136 96h8v8H136V96M160 96h8v8H160V96M184 96h8v8H184V96M192 96h8v8H192V96M208 96h8v8H208V96M232 96h8v8H232V96M248 96h8v8H248V96M256 96h8v8H256V96M48 104h8v8H48V104M56 104h8v8H56V104M72 104h8v8H72V104M96 104h8v8H96V104M104 104h8v8H104V104M112 104h8v8H112V104M120 104h8v8H120V104M136 104h8v8H136V104M152 104h8v8H152V104M160 104h8v8H160V104M176 104h8v8H176V104M192 104h8v8H192V104M200 104h8v8H200V104M224 104h8v8H224V104M248 104h8v8H248V104M32 112h8v8H32V112M40 112h8v8H40V112M56 112h8v8H56V112M72 112h8v8H72V112M80 112h8v8H80V112M104 112h8v8H104V112M112 112h8v8H112V112M120 112h8v8H120V112M136 112h8v8H136V112M152 112h8v8H152V112M160 112h8v8H160V112M176 112h8v8H176V112M192 112h8v8H192V112M200 112h8v8H200V112M216 112h8v8H216V112M248 112h8v8H248V112M40 120h8v8H40V120M48 120h8v8H48V120M72 120h8v8H72V120M104 120h8v8H104V120M112 120h8v8H112V120M120 120h8v8H120V120M168 120h8v8H168V120M184 120h8v8H184V120M200 120h8v8H200V120M216 120h8v8H216V120M232 120h8v8H232V120M240 120h8v8H240V120M256 120h8v8H256V120M32 128h8v8H32V128M40 128h8v8H40V128M48 128h8v8H48V128M64 128h8v8H64V128M72 128h8v8H72V128M80 128h8v8H80V128M120 128h8v8H120V128M128 128h8v8H128V128M144 128h8v8H144V128M200 128h8v8H200V128M208 128h8v8H208V128M224 128h8v8H224V128M232 128h8v8H232V128M256 128h8v8H256V128M40 136h8v8H40V136M64 136h8v8H64V136M88 136h8v8H88V136M144 136h8v8H144V136M160 136h8v8H160V136M168 136h8v8H168V136M176 136h8v8H176V136M184 136h8v8H184V136M192 136h8v8H192V136M216 136h8v8H216V136M240 136h8v8H240V136M248 136h8v8H248V136M32 144h8v8H32V144M80 144h8v8H80V144M96 144h8v8H96V144M112 144h8v8H112V144M120 144h8v8H120V144M136 144h8v8H136V144M160 144h8v8H160V144M184 144h8v8H184V144M192 144h8v8H192V144M200 144h8v8H200V144M208 144h8v8H208V144M216 144h8v8H216V144M232 144h8v8H232V144M240 144h8v8H240V144M248 144h8v8H248V144M256 144h8v8H256V144M48 152h8v8H48V152M56 152h8v8H56V152M72 152h8v8H72V152M88 152h8v8H88V152M96 152h8v8H96V152M104 152h8v8H104V152M144 152h8v8H144V152M152 152h8v8H152V152M176 152h8v8H176V152M248 152h8v8H248V152M32 160h8v8H32V160M56 160h8v8H56V160M64 160h8v8H64V160M80 160h8v8H80V160M104 160h8v8H104V160M112 160h8v8H112V160M128 160h8v8H128V160M144 160h8v8H144V160M168 160h8v8H168V160M184 160h8v8H184V160M192 160h8v8H192V160M216 160h8v8H216V160M232 160h8v8H232V160M240 160h8v8H240V160M256 160h8v8H256V160M40 168h8v8H40V168M64 168h8v8H64V168M88 168h8v8H88V168M104 168h8v8H104V168M144 168h8v8H144V168M152 168h8v8H152V168M184 168h8v8H184V168M200 168h8v8H200V168M208 168h8v8H208V168M232 168h8v8H232V168M256 168h8v8H256V168M32 176h8v8H32V176M72 176h8v8H72V176M80 176h8v8H80V176M96 176h8v8H96V176M104 176h8v8H104V176M112 176h8v8H112V176M120 176h8v8H120V176M128 176h8v8H128V176M136 176h8v8H136V176M144 176h8v8H144V176M208 176h8v8H208V176M216 176h8v8H216V176M224 176h8v8H224V176M232 176h8v8H232V176M240 176h8v8H240V176M248 176h8v8H248V176M256 176h8v8H256V176M96 184h8v8H96V184M112 184h8v8H112V184M120 184h8v8H120V184M128 184h8v8H128V184M136 184h8v8H136V184M144 184h8v8H144V184M152 184h8v8H152V184M184 184h8v8H184V184M216 184h8v8H216V184M232 184h8v8H232V184M248 184h8v8H248V184M40 192h8v8H40V192M48 192h8v8H48V192M64 192h8v8H64V192M72 192h8v8H72V192M80 192h8v8H80V192M88 192h8v8H88V192M128 192h8v8H128V192M136 192h8v8H136V192M144 192h8v8H144V192M152 192h8v8H152V192M160 192h8v8H160V192M184 192h8v8H184V192M192 192h8v8H192V192M200 192h8v8H200V192M208 192h8v8H208V192M216 192h8v8H216V192M224 192h8v8H224V192M240 192h8v8H240V192M96 200h8v8H96V200M112 200h8v8H112V200M152 200h8v8H152V200M168 200h8v8H168V200M176 200h8v8H176V200M192 200h8v8H192V200M224 200h8v8H224V200M248 200h8v8H248V200M32 208h8v8H32V208M40 208h8v8H40V208M48 208h8v8H48V208M56 208h8v8H56V208M64 208h8v8H64V208M72 208h8v8H72V208M80 208h8v8H80V208M96 208h8v8H96V208M112 208h8v8H112V208M120 208h8v8H120V208M144 208h8v8H144V208M160 208h8v8H160V208M168 208h8v8H168V208M184 208h8v8H184V208M192 208h8v8H192V208M208 208h8v8H208V208M224 208h8v8H224V208M240 208h8v8H240V208M32 216h8v8H32V216M80 216h8v8H80V216M96 216h8v8H96V216M128 216h8v8H128V216M136 216h8v8H136V216M144 216h8v8H144V216M152 216h8v8H152V216M160 216h8v8H160V216M192 216h8v8H192V216M224 216h8v8H224V216M232 216h8v8H232V216M240 216h8v8H240V216M248 216h8v8H248V216M256 216h8v8H256V216M32 224h8v8H32V224M48 224h8v8H48V224M56 224h8v8H56V224M64 224h8v8H64V224M80 224h8v8H80V224M120 224h8v8H120V224M128 224h8v8H128V224M168 224h8v8H168V224M176 224h8v8H176V224M192 224h8v8H192V224M200 224h8v8H200V224M208 224h8v8H208V224M216 224h8v8H216V224M224 224h8v8H224V224M240 224h8v8H240V224M32 232h8v8H32V232M48 232h8v8H48V232M56 232h8v8H56V232M64 232h8v8H64V232M80 232h8v8H80V232M96 232h8v8H96V232M104 232h8v8H104V232M112 232h8v8H112V232M128 232h8v8H128V232M152 232h8v8H152V232M184 232h8v8H184V232M192 232h8v8H192V232M232 232h8v8H232V232M240 232h8v8H240V232M32 240h8v8H32V240M48 240h8v8H48V240M56 240h8v8H56V240M64 240h8v8H64V240M80 240h8v8H80V240M96 240h8v8H96V240M120 240h8v8H120V240M128 240h8v8H128V240M184 240h8v8H184V240M232 240h8v8H232V240M240 240h8v8H240V240M256 240h8v8H256V240M32 248h8v8H32V248M80 248h8v8H80V248M104 248h8v8H104V248M112 248h8v8H112V248M120 248h8v8H120V248M128 248h8v8H128V248M136 248h8v8H136V248M152 248h8v8H152V248M168 248h8v8H168V248M176 248h8v8H176V248M200 248h8v8H200V248M208 248h8v8H208V248M224 248h8v8H224V248M240 248h8v8H240V248M248 248h8v8H248V248M32 256h8v8H32V256M40 256h8v8H40V256M48 256h8v8H48V256M56 256h8v8H56V256M64 256h8v8H64V256M72 256h8v8H72V256M80 256h8v8H80V256M96 256h8v8H96V256M104 256h8v8H104V256M112 256h8v8H112V256M120 256h8v8H120V256M136 256h8v8H136V256M200 256h8v8H200V256M216 256h8v8H216V256M256 256h8v8H256V256"/></svg>