<?xml version="1.0" standalone="yes"?><svg xmlns="http://www.w3.org/2000/svg" version="1.1" width="360" height="360" viewBox="0 0 360 360" shape-rendering="crispEdges"><rect x="0" y="0" width="360" height="360" fill="#ffffff"/><path fill="#000000" d="M32 32h8v8H32V32M40 32h8v8H40V32M48 32h8v8H48V32M56 32h8v8H56V32M64 32h8v8H64V32M72 32h8v8H72V32M80 32h8v8H80V32M120 32h8v8H120V32M128 32h8v8H128V32M136 32h8v8H136V32M152 32h8v8H152V32M160 32h8v8H160V32M168 32h8v8H168V32M176 32h8v8H176V32M184 32h8v8H184V32M200 32h8v8H200V32M216 32h8v8H216V32M224 32h8v8H224V32M240 32h8v8H240V32M248 32h8v8H248V32M256 32h8v8H256V32M272 32h8v8H272V32M280 32h8v8H280V32M288 32h8v8H288V32M296 32h8v8H296V32M304 32h8v8H304V32M312 32h8v8H312V32M320 32h8v8H320V32M32 40h8v8H32V40M80 40h8v8H80V40M96 40h8v8H96V40M104 40h8v8H104V40M112 40h8v8H112V40M144 40h8v8H144V40M176 40h8v8H176V40M184 40h8v8H184V40M200 40h8v8H200V40M232 40h8v8H232V40M240 40h8v8H240V40M256 40h8v8H256V40M272 40h8v8H272V40M320 40h8v8H320V40M32 48h8v8H32V48M48 48h8v8H48V48M56 48h8v8H56V48M64 48h8v8H64V48M80 48h8v8H80V48M96 48h8v8H96V48M112 48h8v8H112V48M120 48h8v8H120V48M136 48h8v8H136V48M160 48h8v8H160V48M176 48h8v8H176V48M184 48h8v8H184V48M192 48h8v8H192V48M208 48h8v8H208V48M224 48h8v8H224V48M232 48h8v8H232V48M240 48h8v8H240V48M272 48h8v8H272V48M288 48h8v8H288V48M296 48h8v8H296V48M304 48h8v8H304V48M320 48h8v8H320V48M32 56h8v8H32V56M48 56h8v8H48V56M56 56h8v8H56V56M64 56h8v8H64V56M80 56h8v8H80V56M96 56h8v8H96V56M120 56h8v8H120V56M152 56h8v8H152V56M168 56h8v8H168V56M184 56h8v8H184V56M192 56h8v8H192V56M208 56h8v8H208V56M224 56h8v8H224V56M232 56h8v8H232V56M240 56h8v8H240V56M256 56h8v8H256V56M272 56h8v8H272V56M288 56h8v8H288V56M296 56h8v8H296V56M304 56h8v8H304V56M320 56h8v8H320V56M32 64h8v8H32V64M48 64h8v8H48V64M56 64h8v8H56V64M64 64h8v8H64V64M80 64h8v8H80V64M112 64h8v8H112V64M128 64h8v8H128V64M144 64h8v8H144V64M152 64h8v8H152V64M160 64h8v8H160V64M216 64h8v8H216V64M240 64h8v8H240V64M256 64h8v8H256V64M272 64h8v8H272V64M288 64h8v8H288V64M296 64h8v8H296V64M304 64h8v8H304V64M320 64h8v8H320V64M32 72h8v8H32V72M80 72h8v8H80V72M176 72h8v8H176V72M184 72h8v8H184V72M192 72h8v8H192V72M200 72h8v8H200V72M208 72h8v8H208V72M216 72h8v8H216V72M224 72h8v8H224V72M232 72h8v8H232V72M248 72h8v8H248V72M256 72h8v8H256V72M272 72h8v8H272V72M320 72h8v8H320V72M32 80h8v8H32V80M40 80h8v8H40V80M48 80h8v8H48V80M56 80h8v8H56V80M64 80h8v8H64V80M72 80h8v8H72V80M80 80h8v8H80V80M96 80h8v8H96V80M112 80h8v8H112V80M128 80h8v8H128V80M144 80h8v8H144V80M160 80h8v8H160V80M176 80h8v8H176V80M192 80h8v8H192V80M208 80h8v8H208V80M224 80h8v8H224V80M240 80h8v8H240V80M256 80h8v8H256V80M272 80h8v8H272V80M280 80h8v8H280V80M288 80h8v8H288V80M296 80h8v8H296V80M304 80h8v8H304V80M312 80h8v8H312V80M320 80h8v8H320V80M96 88h8v8H96V88M112 88h8v8H112V88M128 88h8v8H128V88M144 88h8v8H144V88M152 88h8v8H152V88M160 88h8v8H160V88M184 88h8v8H184V88M200 88h8v8H200V88M216 88h8v8H216V88M248 88h8v8H248V88M256 88h8v8H256V88M32 96h8v8H32V96M80 96h8v8H80V96M96 96h8v8H96V96M112 96h8v8H112V96M120 96h8v8H120V96M144 96h8v8H144V96M176 96h8v8H176V96M184 96h8v8H184V96M192 96h8v8H192V96M200 96h8v8H200V96M208 96h8v8H208V96M216 96h8v8H216V96M224 96h8v8H224V96M240 96h8v8H240V96M264 96h8v8H264V96M272 96h8v8H272V96M296 96h8v8H296V96M304 96h8v8H304V96M312 96h8v8H312V96M32 104h8v8H32V104M48 104h8v8H48V104M56 104h8v8H56V104M72 104h8v8H72V104M120 104h8v8H120V104M144 104h8v8H144V104M168 104h8v8H168V104M192 104h8v8H192V104M208 104h8v8H208V104M232 104h8v8H232V104M248 104h8v8H248V104M256 104h8v8H256V104M264 104h8v8H264V104M272 104h8v8H272V104M288 104h8v8H288V104M304 104h8v8H304V104M312 104h8v8H312V104M320 104h8v8H320V104M40 112h8v8H40V112M48 112h8v8H48V112M64 112h8v8H64V112M80 112h8v8H80V112M96 112h8v8H96V112M144 112h8v8H144V112M192 112h8v8H192V112M216 112h8v8H216V112M224 112h8v8H224V112M240 112h8v8H240V112M304 112h8v8H304V112M40 120h8v8H40V120M48 120h8v8H48V120M64 120h8v8H64V120M72 120h8v8H72V120M96 120h8v8H96V120M112 120h8v8H112V120M144 120h8v8H144V120M152 120h8v8H152V120M160 120h8v8H160V120M168 120h8v8H168V120M176 120h8v8H176V120M200 120h8v8H200V120M216 120h8v8H216V120M232 120h8v8H232V120M248 120h8v8H248V120M264 120h8v8H264V120M280 120h8v8H280V120M288 120h8v8H288V120M304 120h8v8H304V120M312 120h8v8H312V120M320 120h8v8H320V120M32 128h8v8H32V128M48 128h8v8H48V128M72 128h8v8H72V128M80 128h8v8H80V128M88 128h8v8H88V128M104 128h8v8H104V128M120 128h8v8H120V128M128 128h8v8H128V128M136 128h8v8H136V128M144 128h8v8H144V128M160 128h8v8H160V128M184 128h8v8H184V128M192 128h8v8H192V128M200 128h8v8H200V128M208 128h8v8H208V128M224 128h8v8H224V128M232 128h8v8H232V128M240 128h8v8H240V128M248 128h8v8H248V128M256 128h8v8H256V128M280 128h8v8H280V128M296 128h8v8H296V128M304 128h8v8H304V128M312 128h8v8H312V128M320 128h8v8H320V128M48 136h8v8H48V136M56 136h8v8H56V136M64 136h8v8H64V136M104 136h8v8H104V136M128 136h8v8H128V136M144 136h8v8H144V136M152 136h8v8H152V136M168 136h8v8H168V136M176 136h8v8H176V136M184 136h8v8H184V136M216 136h8v8H216V136M224 136h8v8H224V136M232 136h8v8H232V136M248 136h8v8H248V136M288 136h8v8H288V136M312 136h8v8H312V136M32 144h8v8H32V144M40 144h8v8H40V144M48 144h8v8H48V144M56 144h8v8H56V144M72 144h8v8H72V144M80 144h8v8H80V144M88 144h8v8H88V144M96 144h8v8H96V144M104 144h8v8H104V144M112 144h8v8H112V144M144 144h8v8H144V144M168 144h8v8H168V144M184 144h8v8H184V144M192 144h8v8H192V144M200 144h8v8H200V144M216 144h8v8H216V144M232 144h8v8H232V144M256 144h8v8H256V144M264 144h8v8H264V144M272 144h8v8H272V144M280 144h8v8H280V144M304 144h8v8H304V144M320 144h8v8H320V144M40 152h8v8H40V152M48 152h8v8H48V152M56 152h8v8H56V152M64 152h8v8H64V152M112 152h8v8H112V152M120 152h8v8H120V152M128 152h8v8H128V152M144 152h8v8H144V152M168 152h8v8H168V152M176 152h8v8H176V152M192 152h8v8H192V152M224 152h8v8H224V152M240 152h8v8H240V152M256 152h8v8H256V152M272 152h8v8H272V152M288 152h8v8H288V152M296 152h8v8H296V152M312 152h8v8H312V152M320 152h8v8H320V152M32 160h8v8H32V160M40 160h8v8H40V160M48 160h8v8H48V160M56 160h8v8H56V160M64 160h8v8H64V160M80 160h8v8H80V160M88 160h8v8H88V160M112 160h8v8H112V160M128 160h8v8H128V160M144 160h8v8H144V160M160 160h8v8H160V160M200 160h8v8H200V160M224 160h8v8H224V160M248 160h8v8H248V160M256 160h8v8H256V160M264 160h8v8H264V160M280 160h8v8H280V160M296 160h8v8H296V160M304 160h8v8H304V160M320 160h8v8H320V160M40 168h8v8H40V168M64 168h8v8H64V168M72 168h8v8H72V168M88 168h8v8H88V168M112 168h8v8H112V168M120 168h8v8H120V168M128 168h8v8H128V168M136 168h8v8H136V168M176 168h8v8H176V168M192 168h8v8H192V168M200 168h8v8H200V168M208 168h8v8H208V168M224 168h8v8H224V168M248 168h8v8H248V168M264 168h8v8H264V168M272 168h8v8H272V168M288 168h8v8H288V168M320 168h8v8H320V168M32 176h8v8H32V176M48 176h8v8H48V176M80 176h8v8H80V176M96 176h8v8H96V176M112 176h8v8H112V176M120 176h8v8H120V176M144 176h8v8H144V176M152 176h8v8H152V176M168 176h8v8H168V176M176 176h8v8H176V176M192 176h8v8H192V176M200 176h8v8H200V176M208 176h8v8H208V176M216 176h8v8H216V176M224 176h8v8H224V176M232 176h8v8H232V176M240 176h8v8H240V176M248 176h8v8H248V176M256 176h8v8H256V176M264 176h8v8H264V176M272 176h8v8H272V176M288 176h8v8H288V176M296 176h8v8H296V176M312 176h8v8H312V176M32 184h8v8H32V184M40 184h8v8H40V184M56 184h8v8H56V184M72 184h8v8H72V184M88 184h8v8H88V184M96 184h8v8H96V184M104 184h8v8H104V184M112 184h8v8H112V184M120 184h8v8H120V184M136 184h8v8H136V184M168 184h8v8H168V184M176 184h8v8H176V184M184 184h8v8H184V184M192 184h8v8H192V184M200 184h8v8H200V184M224 184h8v8H224V184M232 184h8v8H232V184M240 184h8v8H240V184M264 184h8v8H264V184M280 184h8v8H280V184M288 184h8v8H288V184M304 184h8v8H304V184M312 184h8v8H312V184M32 192h8v8H32V192M40 192h8v8H40V192M48 192h8v8H48V192M64 192h8v8H64V192M72 192h8v8H72V192M80 192h8v8H80V192M96 192h8v8H96V192M104 192h8v8H104V192M120 192h8v8H120V192M136 192h8v8H136V192M152 192h8v8H152V192M160 192h8v8H160V192M176 192h8v8H176V192M184 192h8v8H184V192M208 192h8v8H208V192M224 192h8v8H224V192M232 192h8v8H232V192M240 192h8v8H240V192M296 192h8v8H296V192M320 192h8v8H320V192M32 200h8v8H32V200M40 200h8v8H40V200M48 200h8v8H48V200M72 200h8v8H72V200M88 200h8v8H88V200M104 200h8v8H104V200M112 200h8v8H112V200M120 200h8v8H120V200M128 200h8v8H128V200M136 200h8v8H136V200M144 200h8v8H144V200M152 200h8v8H152V200M160 200h8v8H160V200M192 200h8v8H192V200M200 200h8v8H200V200M208 200h8v8H208V200M224 200h8v8H224V200M240 200h8v8H240V200M256 200h8v8H256V200M272 200h8v8H272V200M304 200h8v8H304V200M312 200h8v8H312V200M320 200h8v8H320V200M56 208h8v8H56V208M80 208h8v8H80V208M104 208h8v8H104V208M112 208h8v8H112V208M128 208h8v8H128V208M136 208h8v8H136V208M176 208h8v8H176V208M184 208h8v8H184V208M192 208h8v8H192V208M208 208h8v8H208V208M216 208h8v8H216V208M256 208h8v8H256V208M272 208h8v8H272V208M280 208h8v8H280V208M288 208h8v8H288V208M304 208h8v8H304V208M320 208h8v8H320V208M40 216h8v8H40V216M64 216h8v8H64V216M88 216h8v8H88V216M104 216h8v8H104V216M112 216h8v8H112V216M128 216h8v8H128V216M144 216h8v8H144V216M152 216h8v8H152V216M184 216h8v8H184V216M200 216h8v8H200V216M216 216h8v8H216V216M224 216h8v8H224V216M232 216h8v8H232V216M240 216h8v8H240V216M248 216h8v8H248V216M264 216h8v8H264V216M272 216h8v8H272V216M304 216h8v8H304V216M320 216h8v8H320V216M32 224h8v8H32V224M40 224h8v8H40V224M64 224h8v8H64V224M80 224h8v8H80V224M88 224h8v8H88V224M96 224h8v8H96V224M120 224h8v8H120V224M128 224h8v8H128V224M160 224h8v8H160V224M168 224h8v8H168V224M176 224h8v8H176V224M184 224h8v8H184V224M200 224h8v8H200V224M216 224h8v8H216V224M224 224h8v8H224V224M248 224h8v8H248V224M264 224h8v8H264V224M280 224h8v8H280V224M288 224h8v8H288V224M296 224h8v8H296V224M304 224h8v8H304V224M312 224h8v8H312V224M32 232h8v8H32V232M40 232h8v8H40V232M48 232h8v8H48V232M56 232h8v8H56V232M64 232h8v8H64V232M88 232h8v8H88V232M104 232h8v8H104V232M120 232h8v8H120V232M128 232h8v8H128V232M136 232h8v8H136V232M144 232h8v8H144V232M160 232h8v8H160V232M168 232h8v8H168V232M224 232h8v8H224V232M240 232h8v8H240V232M248 232h8v8H248V232M272 232h8v8H272V232M32 240h8v8H32V240M64 240h8v8H64V240M80 240h8v8H80V240M96 240h8v8H96V240M128 240h8v8H128V240M192 240h8v8H192V240M216 240h8v8H216V240M232 240h8v8H232V240M248 240h8v8H248V240M256 240h8v8H256V240M272 240h8v8H272V240M296 240h8v8H296V240M312 240h8v8H312V240M32 248h8v8H32V248M48 248h8v8H48V248M96 248h8v8H96V248M104 248h8v8H104V248M112 248h8v8H112V248M120 248h8v8H120V248M128 248h8v8H128V248M136 248h8v8H136V248M144 248h8v8H144V248M152 248h8v8H152V248M168 248h8v8H168V248M192 248h8v8H192V248M200 248h8v8H200V248M216 248h8v8H216V248M232 248h8v8H232V248M248 248h8v8H248V248M256 248h8v8H256V248M264 248h8v8H264V248M272 248h8v8H272V248M288 248h8v8H288V248M304 248h8v8H304V248M312 248h8v8H312V248M320 248h8v8H320V248M32 256h8v8H32V256M48 256h8v8H48V256M80 256h8v8H80V256M96 256h8v8H96V256M104 256h8v8H104V256M112 256h8v8H112V256M136 256h8v8H136V256M144 256h8v8H144V256M160 256h8v8H160V256M176 256h8v8H176V256M200 256h8v8H200V256M216 256h8v8H216V256M224 256h8v8H224V256M256 256h8v8H256V256M264 256h8v8H264V256M272 256h8v8H272V256M280 256h8v8H280V256M288 256h8v8H288V256M304 256h8v8H304V256M320 256h8v8H320V256M96 264h8v8H96V264M112 264h8v8H112V264M128 264h8v8H128V264M152 264h8v8H152V264M160 264h8v8H160V264M168 264h8v8H168V264M184 264h8v8H184V264M192 264h8v8H192V264M216 264h8v8H216V264M256 264h8v8H256V264M288 264h8v8H288V264M312 264h8v8H312V264M320 264h8v8H320V264M32 272h8v8H32V272M40 272h8v8H40V272M48 272h8v8H48V272M56 272h8v8H56V272M64 272h8v8H64V272M72 272h8v8H72V272M80 272h8v8H80V272M104 272h8v8H104V272M112 272h8v8H112V272M120 272h8v8H120V272M128 272h8v8H128V272M144 272h8v8H144V272M152 272h8v8H152V272M192 272h8v8H192V272M200 272h8v8H200V272M208 272h8v8H208V272M256 272h8v8H256V272M272 272h8v8H272V272M288 272h8v8H288V272M296 272h8v8H296V272M312 272h8v8H312V272M320 272h8v8H320V272M32 280h8v8H32V280M80 280h8v8H80V280M104 280h8v8H104V280M112 280h8v8H112V280M120 280h8v8H120V280M128 280h8v8H128V280M136 280h8v8H136V280M168 280h8v8H168V280M176 280h8v8H176V280M184 280h8v8H184V280M192 280h8v8H192V280M208 280h8v8H208V280M224 280h8v8H224V280M232 280h8v8H232V280M240 280h8v8H240V280M248 280h8v8H248V280M256 280h8v8H256V280M288 280h8v8H288V280M304 280h8v8H304V280M312 280h8v8H312V280M320 280h8v8H320V280M32 288h8v8H32V288M48 288h8v8H48V288M56 288h8v8H56V288M64 288h8v8H64V288M80 288h8v8H80V288M112 288h8v8H112V288M120 288h8v8H120V288M128 288h8v8H128V288M136 288h8v8H136V288M160 288h8v8H160V288M200 288h8v8H200V288M216 288h8v8H216V288M224 288h8v8H224V288M240 288h8v8H240V288M256 288h8v8H256V288M264 288h8v8H264V288M272 288h8v8H272V288M280 288h8v8H280V288M288 288h8v8H288V288M312 288h8v8H312V288M32 296h8v8H32V296M48 296h8v8H48V296M56 296h8v8H56V296M64 296h8v8H64V296M80 296h8v8H80V296M112 296h8v8H112V296M120 296h8v8H120V296M128 296h8v8H128V296M144 296h8v8H144V296M160 296h8v8H160V296M168 296h8v8H168V296M176 296h8v8H176V296M248 296h8v8H248V296M256 296h8v8H256V296M296 296h8v8H296V296M304 296h8v8H304V296M32 304h8v8H32V304M48 304h8v8H48V304M56 304h8v8H56V304M64 304h8v8H64V304M80 304h8v8H80V304M112 304h8v8H112V304M120 304h8v8H120V304M136 304h8v8H136V304M144 304h8v8H144V304M152 304h8v8H152V304M160 304h8v8H160V304M176 304h8v8H176V304M184 304h8v8H184V304M200 304h8v8H200V304M224 304h8v8H224V304M248 304h8v8H248V304M280 304h8v8H280V304M288 304h8v8H288V304M296 304h8v8H296V304M320 304h8v8H320V304M32 312h8v8H32V312M80 312h8v8H80V312M104 312h8v8H104V312M120 312h8v8H120V312M128 312h8v8H128V312M144 312h8v8H144V312M168 312h8v8H168V312M176 312h8v8H176V312M184 312h8v8H184V312M192 312h8v8H192V312M200 312h8v8H200V312M208 312h8v8H208V312M216 312h8v8H216V312M232 312h8v8H232V312M240 312h8v8H240V312M248 312h8v8H248V312M256 312h8v8H256V312M272 312h8v8H272V312M280 312h8v8H280V312M288 312h8v8H288V312M296 312h8v8H296V312M304 312h8v8H304V312M320 312h8v8H320V312M32 320h8v8H32V320M40 320h8v8H40V320M48 320h8v8H48V320M56 320h8v8H56V320M64 320h8v8H64V320M72 320h8v8H72V320M80 320h8v8H80V320M96 320h8v8H96V320M104 320h8v8H104V320M128 320h8v8H128V320M152 320h8v8H152V320M160 320h8v8H160V320M168 320h8v8H168V320M192 320h8v8H192V320M200 320h8v8H200V320M208 320h8v8H208V320M224 320h8v8H224V320M240 320h8v8H240V320M272 320h8v8H272V320M280 320h8v8H280V320M288 320h8v8H288V320M320 320h8v8H320V320"/></svg>