<?xml version="1.0" standalone="yes"?><svg xmlns="http://www.w3.org/2000/svg" version="1.1" width="392" height="392" viewBox="0 0 392 392" shape-rendering="crispEdges"><rect x="0" y="0" width="392" height="392" fill="#ffffff"/><path fill="#000000" d="M32 32h8v8H32V32M40 32h8v8H40V32M48 32h8v8H48V32M56 32h8v8H56V32M64 32h8v8H64V32M72 32h8v8H72V32M80 32h8v8H80V32M104 32h8v8H104V32M120 32h8v8H120V32M152 32h8v8H152V32M176 32h8v8H176V32M184 32h8v8H184V32M208 32h8v8H208V32M224 32h8v8H224V32M248 32h8v8H248V32M264 32h8v8H264V32M280 32h8v8H280V32M304 32h8v8H304V32M312 32h8v8H312V32M320 32h8v8H320V32M328 32h8v8H328V32M336 32h8v8H336V32M344 32h8v8H344V32M352 32h8v8H352V32M32 40h8v8H32V40M80 40h8v8H80V40M128 40h8v8H128V40M152 40h8v8H152V40M160 40h8v8H160V40M176 40h8v8H176V40M208 40h8v8H208V40M224 40h8v8H224V40M232 40h8v8H232V40M248 40h8v8H248V40M304 40h8v8H304V40M352 40h8v8H352V40M32 48h8v8H32V48M48 48h8v8H48V48M56 48h8v8H56V48M64 48h8v8H64V48M80 48h8v8H80V48M96 48h8v8H96V48M104 48h8v8H104V48M112 48h8v8H112V48M120 48h8v8H120V48M128 48h8v8H128V48M136 48h8v8H136V48M144 48h8v8H144V48M240 48h8v8H240V48M256 48h8v8H256V48M264 48h8v8H264V48M280 48h8v8H280V48M288 48h8v8H288V48M304 48h8v8H304V48M320 48h8v8H320V48M328 48h8v8H328V48M336 48h8v8H336V48M352 48h8v8H352V48M32 56h8v8H32V56M48 56h8v8H48V56M56 56h8v8H56V56M64 56h8v8H64V56M80 56h8v8H80V56M96 56h8v8H96V56M128 56h8v8H128V56M136 56h8v8H136V56M176 56h8v8H176V56M184 56h8v8H184V56M192 56h8v8H192V56M200 56h8v8H200V56M208 56h8v8H208V56M216 56h8v8H216V56M256 56h8v8H256V56M280 56h8v8H280V56M304 56h8v8H304V56M320 56h8v8H320V56M328 56h8v8H328V56M336 56h8v8H336V56M352 56h8v8H352V56M32 64h8v8H32V64M48 64h8v8H48V64M56 64h8v8H56V64M64 64h8v8H64V64M80 64h8v8H80V64M96 64h8v8H96V64M128 64h8v8H128V64M136 64h8v8H136V64M152 64h8v8H152V64M160 64h8v8H160V64M168 64h8v8H168V64M184 64h8v8H184V64M200 64h8v8H200V64M224 64h8v8H224V64M240 64h8v8H240V64M256 64h8v8H256V64M264 64h8v8H264V64M272 64h8v8H272V64M304 64h8v8H304V64M320 64h8v8H320V64M328 64h8v8H328V64M336 64h8v8H336V64M352 64h8v8H352V64M32 72h8v8H32V72M80 72h8v8H80V72M96 72h8v8H96V72M104 72h8v8H104V72M120 72h8v8H120V72M144 72h8v8H144V72M160 72h8v8H160V72M176 72h8v8H176V72M200 72h8v8H200V72M224 72h8v8H224V72M248 72h8v8H248V72M264 72h8v8H264V72M272 72h8v8H272V72M304 72h8v8H304V72M352 72h8v8H352V72M32 80h8v8H32V80M40 80h8v8H40V80M48 80h8v8H48V80M56 80h8v8H56V80M64 80h8v8H64V80M72 80h8v8H72V80M80 80h8v8H80V80M96 80h8v8H96V80M112 80h8v8H112V80M128 80h8v8H128V80M144 80h8v8H144V80M160 80h8v8H160V80M176 80h8v8H176V80M192 80h8v8H192V80M208 80h8v8H208V80M224 80h8v8H224V80M240 80h8v8H240V80M256 80h8v8H256V80M272 80h8v8H272V80M288 80h8v8H288V80M304 80h8v8H304V80M312 80h8v8H312V80M320 80h8v8H320V80M328 80h8v8H328V80M336 80h8v8H336V80M344 80h8v8H344V80M352 80h8v8H352V80M96 88h8v8H96V88M112 88h8v8H112V88M176 88h8v8H176V88M184 88h8v8H184V88M192 88h8v8H192V88M200 88h8v8H200V88M224 88h8v8H224V88M232 88h8v8H232V88M240 88h8v8H240V88M264 88h8v8H264V88M288 88h8v8H288V88M32 96h8v8H32V96M48 96h8v8H48V96M56 96h8v8H56V96M64 96h8v8H64V96M72 96h8v8H72V96M80 96h8v8H80V96M136 96h8v8H136V96M144 96h8v8H144V96M152 96h8v8H152V96M160 96h8v8H160V96M168 96h8v8H168V96M176 96h8v8H176V96M184 96h8v8H184V96M200 96h8v8H200V96M208 96h8v8H208V96M216 96h8v8H216V96M224 96h8v8H224V96M232 96h8v8H232V96M264 96h8v8H264V96M280 96h8v8H280V96M304 96h8v8H304V96M312 96h8v8H312V96M320 96h8v8H320V96M328 96h8v8H328V96M336 96h8v8H336V96M32 104h8v8H32V104M40 104h8v8H40V104M48 104h8v8H48V104M56 104h8v8H56V104M64 104h8v8H64V104M104 104h8v8H104V104M120 104h8v8H120V104M128 104h8v8H128V104M144 104h8v8H144V104M168 104h8v8H168V104M176 104h8v8H176V104M184 104h8v8H184V104M208 104h8v8H208V104M232 104h8v8H232V104M248 104h8v8H248V104M264 104h8v8H264V104M272 104h8v8H272V104M280 104h8v8H280V104M312 104h8v8H312V104M344 104h8v8H344V104M32 112h8v8H32V112M40 112h8v8H40V112M48 112h8v8H48V112M72 112h8v8H72V112M80 112h8v8H80V112M88 112h8v8H88V112M104 112h8v8H104V112M120 112h8v8H120V112M128 112h8v8H128V112M152 112h8v8H152V112M176 112h8v8H176V112M200 112h8v8H200V112M216 112h8v8H216V112M224 112h8v8H224V112M232 112h8v8H232V112M240 112h8v8H240V112M256 112h8v8H256V112M264 112h8v8H264V112M272 112h8v8H272V112M280 112h8v8H280V112M288 112h8v8H288V112M312 112h8v8H312V112M320 112h8v8H320V112M328 112h8v8H328V112M336 112h8v8H336V112M344 112h8v8H344V112M32 120h8v8H32V120M40 120h8v8H40V120M64 120h8v8H64V120M72 120h8v8H72V120M88 120h8v8H88V120M128 120h8v8H128V120M136 120h8v8H136V120M152 120h8v8H152V120M176 120h8v8H176V120M224 120h8v8H224V120M264 120h8v8H264V120M272 120h8v8H272V120M336 120h8v8H336V120M352 120h8v8H352V120M32 128h8v8H32V128M64 128h8v8H64V128M80 128h8v8H80V128M96 128h8v8H96V128M104 128h8v8H104V128M112 128h8v8H112V128M120 128h8v8H120V128M128 128h8v8H128V128M144 128h8v8H144V128M160 128h8v8H160V128M176 128h8v8H176V128M184 128h8v8H184V128M224 128h8v8H224V128M232 128h8v8H232V128M248 128h8v8H248V128M264 128h8v8H264V128M288 128h8v8H288V128M296 128h8v8H296V128M48 136h8v8H48V136M88 136h8v8H88V136M104 136h8v8H104V136M112 136h8v8H112V136M120 136h8v8H120V136M128 136h8v8H128V136M160 136h8v8H160V136M168 136h8v8H168V136M192 136h8v8H192V136M200 136h8v8H200V136M208 136h8v8H208V136M224 136h8v8H224V136M232 136h8v8H232V136M240 136h8v8H240V136M248 136h8v8H248V136M264 136h8v8H264V136M280 136h8v8H280V136M288 136h8v8H288V136M312 136h8v8H312V136M40 144h8v8H40V144M48 144h8v8H48V144M80 144h8v8H80V144M96 144h8v8H96V144M152 144h8v8H152V144M176 144h8v8H176V144M184 144h8v8H184V144M208 144h8v8H208V144M224 144h8v8H224V144M232 144h8v8H232V144M248 144h8v8H248V144M256 144h8v8H256V144M272 144h8v8H272V144M288 144h8v8H288V144M296 144h8v8H296V144M320 144h8v8H320V144M344 144h8v8H344V144M352 144h8v8H352V144M40 152h8v8H40V152M72 152h8v8H72V152M88 152h8v8H88V152M96 152h8v8H96V152M120 152h8v8H120V152M128 152h8v8H128V152M144 152h8v8H144V152M176 152h8v8H176V152M184 152h8v8H184V152M192 152h8v8H192V152M200 152h8v8H200V152M208 152h8v8H208V152M216 152h8v8H216V152M256 152h8v8H256V152M272 152h8v8H272V152M280 152h8v8H280V152M296 152h8v8H296V152M304 152h8v8H304V152M312 152h8v8H312V152M320 152h8v8H320V152M328 152h8v8H328V152M344 152h8v8H344V152M64 160h8v8H64V160M72 160h8v8H72V160M80 160h8v8H80V160M88 160h8v8H88V160M96 160h8v8H96V160M104 160h8v8H104V160M136 160h8v8H136V160M152 160h8v8H152V160M160 160h8v8H160V160M168 160h8v8H168V160M176 160h8v8H176V160M184 160h8v8H184V160M192 160h8v8H192V160M200 160h8v8H200V160M216 160h8v8H216V160M232 160h8v8H232V160M240 160h8v8H240V160M248 160h8v8H248V160M272 160h8v8H272V160M296 160h8v8H296V160M304 160h8v8H304V160M320 160h8v8H320V160M344 160h8v8H344V160M352 160h8v8H352V160M64 168h8v8H64V168M72 168h8v8H72V168M112 168h8v8H112V168M120 168h8v8H120V168M128 168h8v8H128V168M144 168h8v8H144V168M152 168h8v8H152V168M168 168h8v8H168V168M176 168h8v8H176V168M184 168h8v8H184V168M200 168h8v8H200V168M208 168h8v8H208V168M224 168h8v8H224V168M248 168h8v8H248V168M256 168h8v8H256V168M288 168h8v8H288V168M336 168h8v8H336V168M352 168h8v8H352V168M64 176h8v8H64V176M80 176h8v8H80V176M104 176h8v8H104V176M120 176h8v8H120V176M136 176h8v8H136V176M152 176h8v8H152V176M160 176h8v8H160V176M168 176h8v8H168V176M192 176h8v8H192V176M200 176h8v8H200V176M216 176h8v8H216V176M232 176h8v8H232V176M240 176h8v8H240V176M256 176h8v8H256V176M264 176h8v8H264V176M304 176h8v8H304V176M312 176h8v8H312V176M32 184h8v8H32V184M40 184h8v8H40V184M48 184h8v8H48V184M64 184h8v8H64V184M96 184h8v8H96V184M112 184h8v8H112V184M128 184h8v8H128V184M168 184h8v8H168V184M176 184h8v8H176V184M184 184h8v8H184V184M200 184h8v8H200V184M208 184h8v8H208V184M216 184h8v8H216V184M232 184h8v8H232V184M240 184h8v8H240V184M256 184h8v8H256V184M296 184h8v8H296V184M320 184h8v8H320V184M336 184h8v8H336V184M344 184h8v8H344V184M352 184h8v8H352V184M72 192h8v8H72V192M80 192h8v8H80V192M88 192h8v8H88V192M96 192h8v8H96V192M104 192h8v8H104V192M120 192h8v8H120V192M128 192h8v8H128V192M136 192h8v8H136V192M144 192h8v8H144V192M152 192h8v8H152V192M160 192h8v8H160V192M192 192h8v8H192V192M200 192h8v8H200V192M240 192h8v8H240V192M248 192h8v8H248V192M256 192h8v8H256V192M272 192h8v8H272V192M280 192h8v8H280V192M304 192h8v8H304V192M320 192h8v8H320V192M328 192h8v8H328V192M336 192h8v8H336V192M32 200h8v8H32V200M96 200h8v8H96V200M176 200h8v8H176V200M184 200h8v8H184V200M192 200h8v8H192V200M200 200h8v8H200V200M208 200h8v8H208V200M216 200h8v8H216V200M224 200h8v8H224V200M232 200h8v8H232V200M240 200h8v8H240V200M248 200h8v8H248V200M272 200h8v8H272V200M296 200h8v8H296V200M304 200h8v8H304V200M320 200h8v8H320V200M344 200h8v8H344V200M352 200h8v8H352V200M48 208h8v8H48V208M64 208h8v8H64V208M80 208h8v8H80V208M104 208h8v8H104V208M128 208h8v8H128V208M136 208h8v8H136V208M160 208h8v8H160V208M168 208h8v8H168V208M176 208h8v8H176V208M184 208h8v8H184V208M192 208h8v8H192V208M200 208h8v8H200V208M224 208h8v8H224V208M232 208h8v8H232V208M240 208h8v8H240V208M256 208h8v8H256V208M264 208h8v8H264V208M272 208h8v8H272V208M280 208h8v8H280V208M288 208h8v8H288V208M304 208h8v8H304V208M312 208h8v8H312V208M328 208h8v8H328V208M336 208h8v8H336V208M352 208h8v8H352V208M32 216h8v8H32V216M40 216h8v8H40V216M56 216h8v8H56V216M88 216h8v8H88V216M112 216h8v8H112V216M120 216h8v8H120V216M144 216h8v8H144V216M208 216h8v8H208V216M216 216h8v8H216V216M232 216h8v8H232V216M240 216h8v8H240V216M248 216h8v8H248V216M264 216h8v8H264V216M280 216h8v8H280V216M296 216h8v8H296V216M304 216h8v8H304V216M312 216h8v8H312V216M320 216h8v8H320V216M32 224h8v8H32V224M48 224h8v8H48V224M56 224h8v8H56V224M64 224h8v8H64V224M80 224h8v8H80V224M96 224h8v8H96V224M120 224h8v8H120V224M128 224h8v8H128V224M144 224h8v8H144V224M152 224h8v8H152V224M176 224h8v8H176V224M184 224h8v8H184V224M192 224h8v8H192V224M200 224h8v8H200V224M216 224h8v8H216V224M224 224h8v8H224V224M232 224h8v8H232V224M240 224h8v8H240V224M248 224h8v8H248V224M272 224h8v8H272V224M280 224h8v8H280V224M296 224h8v8H296V224M320 224h8v8H320V224M344 224h8v8H344V224M32 232h8v8H32V232M56 232h8v8H56V232M64 232h8v8H64V232M112 232h8v8H112V232M144 232h8v8H144V232M168 232h8v8H168V232M176 232h8v8H176V232M184 232h8v8H184V232M224 232h8v8H224V232M232 232h8v8H232V232M256 232h8v8H256V232M264 232h8v8H264V232M272 232h8v8H272V232M304 232h8v8H304V232M312 232h8v8H312V232M344 232h8v8H344V232M40 240h8v8H40V240M48 240h8v8H48V240M56 240h8v8H56V240M80 240h8v8H80V240M96 240h8v8H96V240M112 240h8v8H112V240M128 240h8v8H128V240M136 240h8v8H136V240M160 240h8v8H160V240M176 240h8v8H176V240M192 240h8v8H192V240M208 240h8v8H208V240M216 240h8v8H216V240M224 240h8v8H224V240M256 240h8v8H256V240M272 240h8v8H272V240M280 240h8v8H280V240M288 240h8v8H288V240M312 240h8v8H312V240M328 240h8v8H328V240M352 240h8v8H352V240M40 248h8v8H40V248M48 248h8v8H48V248M64 248h8v8H64V248M88 248h8v8H88V248M104 248h8v8H104V248M120 248h8v8H120V248M128 248h8v8H128V248M136 248h8v8H136V248M168 248h8v8H168V248M176 248h8v8H176V248M184 248h8v8H184V248M248 248h8v8H248V248M264 248h8v8H264V248M280 248h8v8H280V248M336 248h8v8H336V248M352 248h8v8H352V248M48 256h8v8H48V256M64 256h8v8H64V256M72 256h8v8H72V256M80 256h8v8H80V256M88 256h8v8H88V256M96 256h8v8H96V256M104 256h8v8H104V256M120 256h8v8H120V256M128 256h8v8H128V256M136 256h8v8H136V256M160 256h8v8H160V256M168 256h8v8H168V256M176 256h8v8H176V256M192 256h8v8H192V256M208 256h8v8H208V256M216 256h8v8H216V256M248 256h8v8H248V256M304 256h8v8H304V256M320 256h8v8H320V256M328 256h8v8H328V256M352 256h8v8H352V256M32 264h8v8H32V264M48 264h8v8H48V264M56 264h8v8H56V264M64 264h8v8H64V264M72 264h8v8H72V264M96 264h8v8H96V264M104 264h8v8H104V264M112 264h8v8H112V264M120 264h8v8H120V264M128 264h8v8H128V264M152 264h8v8H152V264M176 264h8v8H176V264M200 264h8v8H200V264M208 264h8v8H208V264M216 264h8v8H216V264M224 264h8v8H224V264M232 264h8v8H232V264M240 264h8v8H240V264M248 264h8v8H248V264M256 264h8v8H256V264M264 264h8v8H264V264M272 264h8v8H272V264M296 264h8v8H296V264M320 264h8v8H320V264M328 264h8v8H328V264M336 264h8v8H336V264M344 264h8v8H344V264M352 264h8v8H352V264M32 272h8v8H32V272M48 272h8v8H48V272M56 272h8v8H56V272M64 272h8v8H64V272M80 272h8v8H80V272M104 272h8v8H104V272M144 272h8v8H144V272M160 272h8v8H160V272M168 272h8v8H168V272M192 272h8v8H192V272M200 272h8v8H200V272M256 272h8v8H256V272M264 272h8v8H264V272M272 272h8v8H272V272M288 272h8v8H288V272M296 272h8v8H296V272M336 272h8v8H336V272M32 280h8v8H32V280M64 280h8v8H64V280M72 280h8v8H72V280M96 280h8v8H96V280M120 280h8v8H120V280M128 280h8v8H128V280M136 280h8v8H136V280M152 280h8v8H152V280M208 280h8v8H208V280M224 280h8v8H224V280M232 280h8v8H232V280M272 280h8v8H272V280M280 280h8v8H280V280M288 280h8v8H288V280M304 280h8v8H304V280M320 280h8v8H320V280M328 280h8v8H328V280M336 280h8v8H336V280M344 280h8v8H344V280M352 280h8v8H352V280M32 288h8v8H32V288M48 288h8v8H48V288M56 288h8v8H56V288M64 288h8v8H64V288M72 288h8v8H72V288M80 288h8v8H80V288M88 288h8v8H88V288M96 288h8v8H96V288M104 288h8v8H104V288M112 288h8v8H112V288M136 288h8v8H136V288M144 288h8v8H144V288M160 288h8v8H160V288M200 288h8v8H200V288M216 288h8v8H216V288M240 288h8v8H240V288M248 288h8v8H248V288M264 288h8v8H264V288M288 288h8v8H288V288M296 288h8v8H296V288M304 288h8v8H304V288M312 288h8v8H312V288M320 288h8v8H320V288M328 288h8v8H328V288M352 288h8v8H352V288M96 296h8v8H96V296M104 296h8v8H104V296M120 296h8v8H120V296M128 296h8v8H128V296M160 296h8v8H160V296M184 296h8v8H184V296M224 296h8v8H224V296M232 296h8v8H232V296M248 296h8v8H248V296M280 296h8v8H280V296M288 296h8v8H288V296M320 296h8v8H320V296M328 296h8v8H328V296M336 296h8v8H336V296M344 296h8v8H344V296M352 296h8v8H352V296M32 304h8v8H32V304M40 304h8v8H40V304M48 304h8v8H48V304M56 304h8v8H56V304M64 304h8v8H64V304M72 304h8v8H72V304M80 304h8v8H80V304M112 304h8v8H112V304M120 304h8v8H120V304M144 304h8v8H144V304M160 304h8v8H160V304M176 304h8v8H176V304M184 304h8v8H184V304M192 304h8v8H192V304M208 304h8v8H208V304M224 304h8v8H224V304M232 304h8v8H232V304M240 304h8v8H240V304M248 304h8v8H248V304M264 304h8v8H264V304M272 304h8v8H272V304M288 304h8v8H288V304M304 304h8v8H304V304M320 304h8v8H320V304M336 304h8v8H336V304M32 312h8v8H32V312M80 312h8v8H80V312M96 312h8v8H96V312M112 312h8v8H112V312M128 312h8v8H128V312M144 312h8v8H144V312M160 312h8v8H160V312M216 312h8v8H216V312M224 312h8v8H224V312M240 312h8v8H240V312M248 312h8v8H248V312M288 312h8v8H288V312M320 312h8v8H320V312M328 312h8v8H328V312M344 312h8v8H344V312M352 312h8v8H352V312M32 320h8v8H32V320M48 320h8v8H48V320M56 320h8v8H56V320M64 320h8v8H64V320M80 320h8v8H80V320M96 320h8v8H96V320M120 320h8v8H120V320M128 320h8v8H128V320M144 320h8v8H144V320M152 320h8v8H152V320M160 320h8v8H160V320M176 320h8v8H176V320M200 320h8v8H200V320M208 320h8v8H208V320M232 320h8v8H232V320M240 320h8v8H240V320M264 320h8v8H264V320M272 320h8v8H272V320M288 320h8v8H288V320M296 320h8v8H296V320M304 320h8v8H304V320M312 320h8v8H312V320M320 320h8v8H320V320M344 320h8v8H344V320M32 328h8v8H32V328M48 328h8v8H48V328M56 328h8v8H56V328M64 328h8v8H64V328M80 328h8v8H80V328M96 328h8v8H96V328M112 328h8v8H112V328M120 328h8v8H120V328M144 328h8v8H144V328M160 328h8v8H160V328M168 328h8v8H168V328M192 328h8v8H192V328M200 328h8v8H200V328M224 328h8v8H224V328M232 328h8v8H232V328M240 328h8v8H240V328M248 328h8v8H248V328M256 328h8v8H256V328M304 328h8v8H304V328M328 328h8v8H328V328M32 336h8v8H32V336M48 336h8v8H48V336M56 336h8v8H56V336M64 336h8v8H64V336M80 336h8v8H80V336M96 336h8v8H96V336M104 336h8v8H104V336M120 336h8v8H120V336M136 336h8v8H136V336M152 336h8v8H152V336M176 336h8v8H176V336M184 336h8v8H184V336M192 336h8v8H192V336M200 336h8v8H200V336M216 336h8v8H216V336M232 336h8v8H232V336M240 336h8v8H240V336M248 336h8v8H248V336M256 336h8v8H256V336M272 336h8v8H272V336M288 336h8v8H288V336M296 336h8v8H296V336M304 336h8v8H304V336M312 336h8v8H312V336M328 336h8v8H328V336M344 336h8v8H344V336M32 344h8v8H32V344M80 344h8v8H80V344M104 344h8v8H104V344M128 344h8v8H128V344M136 344h8v8H136V344M152 344h8v8H152V344M168 344h8v8H168V344M176 344h8v8H176V344M184 344h8v8H184V344M200 344h8v8H200V344M208 344h8v8H208V344M224 344h8v8H224V344M232 344h8v8H232V344M240 344h8v8H240V344M248 344h8v8H248V344M264 344h8v8H264V344M280 344h8v8H280V344M288 344h8v8H288V344M296 344h8v8H296V344M312 344h8v8H312V344M328 344h8v8H328V344M336 344h8v8H336V344M344 344h8v8H344V344M32 352h8v8H32V352M40 352h8v8H40V352M48 352h8v8H48V352M56 352h8v8H56V352M64 352h8v8H64V352M72 352h8v8H72V352M80 352h8v8H80V352M96 352h8v8H96V352M120 352h8v8H120V352M128 352h8v8H128V352M136 352h8v8H136V352M176 352h8v8H176V352M184 352h8v8H184V352M192 352h8v8H192V352M200 352h8v8H200V352M216 352h8v8H216V352M232 352h8v8H232V352M248 352h8v8H248V352M264 352h8v8H264V352M272 352h8v8H272V352M288 352h8v8H288V352M296 352h8v8H296V352M320 352h8v8H320V352"/></svg>